Red.Hot.Fetish.Collection.Vol.92.DVDRip-UNCENSORED 
[img]http://bender1.zikuka.com/img/2010/02/08/9303ef6ef71bc2e684e13e2624954d8f/image25143062.jpg[/img]

[img]http://bender1.zikuka.com/img/2010/02/08/df375e3148afbbfbfa1e038f7b34acdc/image25147406.png[/img]

[img]http://bender1.zikuka.com/img/2010/02/08/07029ec597efd5c16ddc2f958339b554/image25150750.png[/img]

[img]http://bender1.zikuka.com/img/2010/02/08/2cce5a767fb2e5df453d95b0d343559a/image25154156.png[/img]

[img]http://bender1.zikuka.com/img/2010/02/08/f750c25fbc584e5a95d8504bd0c8d05b/image25157781.png[/img]

[img]http://bender1.zikuka.com/img/2010/02/08/ea41461e0ab515a1b5fafe6b8c456c78/image25161515.png[/img]

[img]http://bender1.zikuka.com/img/2010/02/08/fdce5e3101c0a9dcb2eac39d65e9e794/image25167921.png[/img]

[img]http://bender1.zikuka.com/img/2010/02/08/33981d68b8551403355648ff4dfac4fb/image25172812.png[/img]

[img]http://bender1.zikuka.com/img/2010/02/08/7c681e0015868d0be7e732944bc60246/image25177546.png[/img]

[img]http://bender1.zikuka.com/img/2010/02/08/65e650d42de6628737e18acf9624c6a9/image25181968.png[/img]

[img]http://bender1.zikuka.com/img/2010/02/08/9c93318a118f9e5473b1435a549f69b9/image25185468.png[/img]

[img]http://bender1.zikuka.com/img/2010/02/08/2cd598904dafe61dc1b169ea3037880b/image25188812.png[/img]

[img]http://bender1.zikuka.com/img/2010/02/08/5ece4ccb2c932a51b5b5975135c3e208/image25192171.png[/img]

[img]http://bender1.zikuka.com/img/2010/02/08/d6229dad28f09b3a19e9e7f86abba583/image25195968.png[/img]

[img]http://bender1.zikuka.com/img/2010/02/08/2403dc8809aef3f29a804362c14ee0fc/image25199500.png[/img]

[img]http://bender1.zikuka.com/img/2010/02/08/2935e1f81d84ed9e65e0f0243b3311b1/image25203312.png[/img]

[img]http://bender1.zikuka.com/img/2010/02/08/056e8a04064b2a7a2683a7c6bc6df42e/image25207703.png[/img]

[img]http://bender1.zikuka.com/img/2010/02/08/e9cc92ccb43a156f6de0d19386b05406/image25212437.png[/img]

[img]http://bender1.zikuka.com/img/2010/02/08/d29ac4a5c61b0c8255903efc96326353/image25217359.png[/img]

[img]http://bender1.zikuka.com/img/2010/02/08/40762eaaa531a11e305fac7b5cddefaa/image25221390.png[/img]

[img]http://bender1.zikuka.com/img/2010/02/08/f391dd50307cfb35b0df7e931586c075/image25225234.png[/img]

[img]http://bender1.zikuka.com/img/2010/02/08/c58ce45fec72df11640c45a960b10652/image25229250.png[/img]

[img]http://bender1.zikuka.com/img/2010/02/08/9d2099f3baeb20d096e9dd365b8ba876/image25232796.png[/img]

[img]http://bender1.zikuka.com/img/2010/02/08/6af19eaf36c08dee0a21821455042f8d/image25236531.png[/img]

[img]http://bender1.zikuka.com/img/2010/02/08/c898e42897b722368252b770b4c6b72e/image25240593.png[/img] 
http://bender1.zikuka.com/img/2010/02/08/9303ef6ef71bc2e684e13e2624954d8f/image25143062.jpg 
http://bender1.zikuka.com/img/2010/02/08/df375e3148afbbfbfa1e038f7b34acdc/image25147406.png 
http://bender1.zikuka.com/img/2010/02/08/07029ec597efd5c16ddc2f958339b554/image25150750.png 
http://bender1.zikuka.com/img/2010/02/08/2cce5a767fb2e5df453d95b0d343559a/image25154156.png 
http://bender1.zikuka.com/img/2010/02/08/f750c25fbc584e5a95d8504bd0c8d05b/image25157781.png 
http://bender1.zikuka.com/img/2010/02/08/ea41461e0ab515a1b5fafe6b8c456c78/image25161515.png 
http://bender1.zikuka.com/img/2010/02/08/fdce5e3101c0a9dcb2eac39d65e9e794/image25167921.png 
http://bender1.zikuka.com/img/2010/02/08/33981d68b8551403355648ff4dfac4fb/image25172812.png 
http://bender1.zikuka.com/img/2010/02/08/7c681e0015868d0be7e732944bc60246/image25177546.png 
http://bender1.zikuka.com/img/2010/02/08/65e650d42de6628737e18acf9624c6a9/image25181968.png 
http://bender1.zikuka.com/img/2010/02/08/9c93318a118f9e5473b1435a549f69b9/image25185468.png 
http://bender1.zikuka.com/img/2010/02/08/2cd598904dafe61dc1b169ea3037880b/image25188812.png 
http://bender1.zikuka.com/img/2010/02/08/5ece4ccb2c932a51b5b5975135c3e208/image25192171.png 
http://bender1.zikuka.com/img/2010/02/08/d6229dad28f09b3a19e9e7f86abba583/image25195968.png 
http://bender1.zikuka.com/img/2010/02/08/2403dc8809aef3f29a804362c14ee0fc/image25199500.png 
http://bender1.zikuka.com/img/2010/02/08/2935e1f81d84ed9e65e0f0243b3311b1/image25203312.png 
http://bender1.zikuka.com/img/2010/02/08/056e8a04064b2a7a2683a7c6bc6df42e/image25207703.png 
http://bender1.zikuka.com/img/2010/02/08/e9cc92ccb43a156f6de0d19386b05406/image25212437.png 
http://bender1.zikuka.com/img/2010/02/08/d29ac4a5c61b0c8255903efc96326353/image25217359.png 
http://bender1.zikuka.com/img/2010/02/08/40762eaaa531a11e305fac7b5cddefaa/image25221390.png 
http://bender1.zikuka.com/img/2010/02/08/f391dd50307cfb35b0df7e931586c075/image25225234.png 
http://bender1.zikuka.com/img/2010/02/08/c58ce45fec72df11640c45a960b10652/image25229250.png 
http://bender1.zikuka.com/img/2010/02/08/9d2099f3baeb20d096e9dd365b8ba876/image25232796.png 
http://bender1.zikuka.com/img/2010/02/08/6af19eaf36c08dee0a21821455042f8d/image25236531.png 
http://bender1.zikuka.com/img/2010/02/08/c898e42897b722368252b770b4c6b72e/image25240593.png
Cast: Chisato Mukai

Everybody loves a tasty pie. This super cute Japanese idol loves CREAM PIE!! Just insert a thick load of cum deep inside her wet pink pussy, and let it slowly drip out!
Format                           : AVI
Format/Info                      : Audio Video Interleave
File size                        : 700 MiB
Duration                         : 1h 57mn
Overall bit rate                 : 835 Kbps
Writing application              : Nandub v1.0rc2
Writing library                  : Nandub build 1852/release

Video
Format                           : MPEG-4 Visual
Format profile                   : Streaming Video@L1
Format settings, BVOP            : No
Format settings, QPel            : No
Format settings, GMC             : No warppoints
Format settings, Matrix          : Default
Codec ID                         : XVID
Codec ID/Hint                    : XviD
Duration                         : 1h 57mn
Bit rate                         : 631 Kbps
Width                            : 640 pixels
Height                           : 352 pixels
Display aspect ratio             : 16/9
Frame rate                       : 29.970 fps
Resolution                       : 24 bits
Colorimetry                      : 4:2:0
Scan type                        : Progressive
Bits/(Pixel*Frame)               : 0.093
Stream size                      : 529 MiB (76%)
Writing library                  : XviD 50

Audio
Format                           : AC-3
Format/Info                      : Audio Coding 3
Codec ID                         : 2000
Duration                         : 1h 57mn
Bit rate mode                    : Constant
Bit rate                         : 192 Kbps
Channel(s)                       : 2 channels
Channel positions                : L R
Sampling rate                    : 48.0 KHz
Video delay                      : 18ms
Stream size                      : 161 MiB (23%)
Alignment                        : Split accross interleaves
Interleave, duration             : 33 ms (1.00 video frame)
Interleave, preload duration     : 500 ms
A simple thankyou ensures my seedboxes are given priority on this file!(you will get the file faster)
No thanks=No re-seeds,No help~No worries i can't be arsed either.
Screens are posted for this file,how-ever some sites do not allow all picture hosts(and i do not have time upload pics to a certain host for a specific site).
I will not respond in this thread to any comments from now on(unless you are a member of a private site or are a respected member of a public site).
Thankyou to all the REAL contributors to the sites who keep the faith everyday.
Leechers,Ass-wipes,Zero posters keep on moaning into our deaf ears.
Contact? Old Skool-respected only (you know how);-)
[url]http://www.fhqhosting.com/ui/1ggggg.swf[/url]
[IMG]http://i43.servimg.com/u/f43/12/33/79/02/potpis10.gif[/IMG]
[IMG]http://www.myspaceninja.com/images/gg/glitterhkisses.gif[/IMG]